<?xml version="1.0" encoding="UTF-8" standalone="no"?>
<!DOCTYPE svg PUBLIC "-//W3C//DTD SVG 1.1//EN"
 "http://www.w3.org/Graphics/SVG/1.1/DTD/svg11.dtd">
<!-- Generated by graphviz version 2.47.0 (20210316.0004)
 -->
<!-- Title: dependencies Pages: 1 -->
<svg width="2940pt" height="284pt"
 viewBox="0.00 0.00 2940.00 284.00" xmlns="http://www.w3.org/2000/svg" xmlns:xlink="http://www.w3.org/1999/xlink">
<g id="graph0" class="graph" transform="scale(1 1) rotate(0) translate(4 280)">
<title>dependencies</title>
<polygon fill="white" stroke="transparent" points="-4,4 -4,-280 2936,-280 2936,4 -4,4"/>
<text text-anchor="start" x="1445.01" y="-42.4" font-family="Times-12" font-weight="bold" font-size="14.00">Legend</text>
<polygon fill="#ffffb3" stroke="transparent" points="1232,-10 1232,-30 1252,-30 1252,-10 1232,-10"/>
<text text-anchor="start" x="1255.63" y="-15.4" font-family="Times-12" font-size="14.00"> &#160;Declarations</text>
<polygon fill="#8dd3c7" stroke="transparent" points="1345,-10 1345,-30 1365,-30 1365,-10 1345,-10"/>
<text text-anchor="start" x="1368.73" y="-15.4" font-family="Times-12" font-size="14.00"> &#160;Module</text>
<polygon fill="#80b1d3" stroke="transparent" points="1431,-10 1431,-30 1451,-30 1451,-10 1431,-10"/>
<text text-anchor="start" x="1454.78" y="-15.4" font-family="Times-12" font-size="14.00"> &#160;Bootstrap</text>
<polygon fill="#fdb462" stroke="transparent" points="1528,-10 1528,-30 1548,-30 1548,-10 1528,-10"/>
<text text-anchor="start" x="1551.67" y="-15.4" font-family="Times-12" font-size="14.00"> &#160;Providers</text>
<polygon fill="#fb8072" stroke="transparent" points="1624,-10 1624,-30 1644,-30 1644,-10 1624,-10"/>
<text text-anchor="start" x="1647.73" y="-15.4" font-family="Times-12" font-size="14.00"> &#160;Exports</text>
<g id="clust1" class="cluster">
<title>cluster_AppModule</title>
<polygon fill="none" stroke="black" stroke-dasharray="1,5" points="8,-70 8,-268 2924,-268 2924,-70 8,-70"/>
</g>
<g id="clust2" class="cluster">
<title>cluster_AppModule_declarations</title>
<polygon fill="none" stroke="black" points="362,-78 362,-130 2916,-130 2916,-78 362,-78"/>
</g>
<g id="clust19" class="cluster">
<title>cluster_AppModule_imports</title>
<polygon fill="none" stroke="black" points="16,-78 16,-130 354,-130 354,-78 16,-78"/>
</g>
<g id="clust21" class="cluster">
<title>cluster_AppModule_bootstrap</title>
<polygon fill="none" stroke="black" points="1395,-208 1395,-260 1519,-260 1519,-208 1395,-208"/>
</g>
<!-- AddTestDialogComponent -->
<g id="node1" class="node">
<title>AddTestDialogComponent</title>
<polygon fill="#ffffb3" stroke="black" points="2907.64,-122 2740.36,-122 2740.36,-86 2907.64,-86 2907.64,-122"/>
<text text-anchor="middle" x="2824" y="-99.8" font-family="Times,serif" font-size="14.00">AddTestDialogComponent</text>
</g>
<!-- AppModule -->
<g id="node17" class="node">
<title>AppModule</title>
<polygon fill="#8dd3c7" stroke="black" points="1498.66,-187 1495.66,-191 1474.66,-191 1471.66,-187 1415.34,-187 1415.34,-151 1498.66,-151 1498.66,-187"/>
<text text-anchor="middle" x="1457" y="-164.8" font-family="Times,serif" font-size="14.00">AppModule</text>
</g>
<!-- AddTestDialogComponent&#45;&gt;AppModule -->
<g id="edge1" class="edge">
<title>AddTestDialogComponent&#45;&gt;AppModule</title>
<path fill="none" stroke="black" d="M2824,-122.32C2824,-145.66 2824,-183 2824,-183 2824,-183 1508.66,-183 1508.66,-183"/>
<polygon fill="black" stroke="black" points="1508.66,-179.5 1498.66,-183 1508.66,-186.5 1508.66,-179.5"/>
</g>
<!-- AppComponent -->
<g id="node2" class="node">
<title>AppComponent</title>
<polygon fill="#ffffb3" stroke="black" points="2721.94,-122 2616.06,-122 2616.06,-86 2721.94,-86 2721.94,-122"/>
<text text-anchor="middle" x="2669" y="-99.8" font-family="Times,serif" font-size="14.00">AppComponent</text>
</g>
<!-- AppComponent&#45;&gt;AppModule -->
<g id="edge2" class="edge">
<title>AppComponent&#45;&gt;AppModule</title>
<path fill="none" stroke="black" d="M2669,-122.16C2669,-144.35 2669,-179 2669,-179 2669,-179 1508.72,-179 1508.72,-179"/>
<polygon fill="black" stroke="black" points="1508.72,-175.5 1498.72,-179 1508.72,-182.5 1508.72,-175.5"/>
</g>
<!-- BoardAdminComponent -->
<g id="node3" class="node">
<title>BoardAdminComponent</title>
<polygon fill="#ffffb3" stroke="black" points="2598.43,-122 2443.57,-122 2443.57,-86 2598.43,-86 2598.43,-122"/>
<text text-anchor="middle" x="2521" y="-99.8" font-family="Times,serif" font-size="14.00">BoardAdminComponent</text>
</g>
<!-- BoardAdminComponent&#45;&gt;AppModule -->
<g id="edge3" class="edge">
<title>BoardAdminComponent&#45;&gt;AppModule</title>
<path fill="none" stroke="black" d="M2521,-122.28C2521,-143.32 2521,-175 2521,-175 2521,-175 1508.71,-175 1508.71,-175"/>
<polygon fill="black" stroke="black" points="1508.71,-171.5 1498.71,-175 1508.71,-178.5 1508.71,-171.5"/>
</g>
<!-- BoardUserComponent -->
<g id="node4" class="node">
<title>BoardUserComponent</title>
<polygon fill="#ffffb3" stroke="black" points="2425.97,-122 2284.03,-122 2284.03,-86 2425.97,-86 2425.97,-122"/>
<text text-anchor="middle" x="2355" y="-99.8" font-family="Times,serif" font-size="14.00">BoardUserComponent</text>
</g>
<!-- BoardUserComponent&#45;&gt;AppModule -->
<g id="edge4" class="edge">
<title>BoardUserComponent&#45;&gt;AppModule</title>
<path fill="none" stroke="black" d="M2355,-122.31C2355,-142.15 2355,-171 2355,-171 2355,-171 1508.81,-171 1508.81,-171"/>
<polygon fill="black" stroke="black" points="1508.81,-167.5 1498.81,-171 1508.81,-174.5 1508.81,-167.5"/>
</g>
<!-- BusySpinnerComponent -->
<g id="node5" class="node">
<title>BusySpinnerComponent</title>
<polygon fill="#ffffb3" stroke="black" points="2265.66,-122 2112.34,-122 2112.34,-86 2265.66,-86 2265.66,-122"/>
<text text-anchor="middle" x="2189" y="-99.8" font-family="Times,serif" font-size="14.00">BusySpinnerComponent</text>
</g>
<!-- BusySpinnerComponent&#45;&gt;AppModule -->
<g id="edge5" class="edge">
<title>BusySpinnerComponent&#45;&gt;AppModule</title>
<path fill="none" stroke="black" d="M2189,-122.22C2189,-140.83 2189,-167 2189,-167 2189,-167 1508.72,-167 1508.72,-167"/>
<polygon fill="black" stroke="black" points="1508.72,-163.5 1498.72,-167 1508.72,-170.5 1508.72,-163.5"/>
</g>
<!-- DeleteTestDialogComponent -->
<g id="node6" class="node">
<title>DeleteTestDialogComponent</title>
<polygon fill="#ffffb3" stroke="black" points="2094.07,-122 1913.93,-122 1913.93,-86 2094.07,-86 2094.07,-122"/>
<text text-anchor="middle" x="2004" y="-99.8" font-family="Times,serif" font-size="14.00">DeleteTestDialogComponent</text>
</g>
<!-- DeleteTestDialogComponent&#45;&gt;AppModule -->
<g id="edge6" class="edge">
<title>DeleteTestDialogComponent&#45;&gt;AppModule</title>
<path fill="none" stroke="black" d="M2004,-122.02C2004,-139.37 2004,-163 2004,-163 2004,-163 1509.01,-163 1509.01,-163"/>
<polygon fill="black" stroke="black" points="1509.01,-159.5 1499.01,-163 1509.01,-166.5 1509.01,-159.5"/>
</g>
<!-- GatlingApiComponent -->
<g id="node7" class="node">
<title>GatlingApiComponent</title>
<polygon fill="#ffffb3" stroke="black" points="1896.32,-122 1751.68,-122 1751.68,-86 1896.32,-86 1896.32,-122"/>
<text text-anchor="middle" x="1824" y="-99.8" font-family="Times,serif" font-size="14.00">GatlingApiComponent</text>
</g>
<!-- GatlingApiComponent&#45;&gt;AppModule -->
<g id="edge7" class="edge">
<title>GatlingApiComponent&#45;&gt;AppModule</title>
<path fill="none" stroke="black" d="M1824,-122.01C1824,-138.05 1824,-159 1824,-159 1824,-159 1508.74,-159 1508.74,-159"/>
<polygon fill="black" stroke="black" points="1508.74,-155.5 1498.74,-159 1508.74,-162.5 1508.74,-155.5"/>
</g>
<!-- HomeComponent -->
<g id="node8" class="node">
<title>HomeComponent</title>
<polygon fill="#ffffb3" stroke="black" points="1733.55,-122 1618.45,-122 1618.45,-86 1733.55,-86 1733.55,-122"/>
<text text-anchor="middle" x="1676" y="-99.8" font-family="Times,serif" font-size="14.00">HomeComponent</text>
</g>
<!-- HomeComponent&#45;&gt;AppModule -->
<g id="edge8" class="edge">
<title>HomeComponent&#45;&gt;AppModule</title>
<path fill="none" stroke="black" d="M1676,-122.12C1676,-136.78 1676,-155 1676,-155 1676,-155 1508.71,-155 1508.71,-155"/>
<polygon fill="black" stroke="black" points="1508.71,-151.5 1498.71,-155 1508.71,-158.5 1508.71,-151.5"/>
</g>
<!-- JmeterApiComponent -->
<g id="node9" class="node">
<title>JmeterApiComponent</title>
<polygon fill="#ffffb3" stroke="black" points="1599.65,-122 1460.35,-122 1460.35,-86 1599.65,-86 1599.65,-122"/>
<text text-anchor="middle" x="1530" y="-99.8" font-family="Times,serif" font-size="14.00">JmeterApiComponent</text>
</g>
<!-- JmeterApiComponent&#45;&gt;AppModule -->
<g id="edge9" class="edge">
<title>JmeterApiComponent&#45;&gt;AppModule</title>
<path fill="none" stroke="black" d="M1479.5,-122.11C1479.5,-122.11 1479.5,-140.99 1479.5,-140.99"/>
<polygon fill="black" stroke="black" points="1476,-140.99 1479.5,-150.99 1483,-140.99 1476,-140.99"/>
</g>
<!-- LoginComponent -->
<g id="node10" class="node">
<title>LoginComponent</title>
<polygon fill="#ffffb3" stroke="black" points="1442.28,-122 1327.72,-122 1327.72,-86 1442.28,-86 1442.28,-122"/>
<text text-anchor="middle" x="1385" y="-99.8" font-family="Times,serif" font-size="14.00">LoginComponent</text>
</g>
<!-- LoginComponent&#45;&gt;AppModule -->
<g id="edge10" class="edge">
<title>LoginComponent&#45;&gt;AppModule</title>
<path fill="none" stroke="black" d="M1428.78,-122.11C1428.78,-122.11 1428.78,-140.99 1428.78,-140.99"/>
<polygon fill="black" stroke="black" points="1425.28,-140.99 1428.78,-150.99 1432.28,-140.99 1425.28,-140.99"/>
</g>
<!-- PerformanceTestApiComponent -->
<g id="node11" class="node">
<title>PerformanceTestApiComponent</title>
<polygon fill="#ffffb3" stroke="black" points="1309.95,-122 1112.05,-122 1112.05,-86 1309.95,-86 1309.95,-122"/>
<text text-anchor="middle" x="1211" y="-99.8" font-family="Times,serif" font-size="14.00">PerformanceTestApiComponent</text>
</g>
<!-- PerformanceTestApiComponent&#45;&gt;AppModule -->
<g id="edge11" class="edge">
<title>PerformanceTestApiComponent&#45;&gt;AppModule</title>
<path fill="none" stroke="black" d="M1211,-122.12C1211,-136.78 1211,-155 1211,-155 1211,-155 1405.27,-155 1405.27,-155"/>
<polygon fill="black" stroke="black" points="1405.27,-158.5 1415.27,-155 1405.27,-151.5 1405.27,-158.5"/>
</g>
<!-- ProfileComponent -->
<g id="node12" class="node">
<title>ProfileComponent</title>
<polygon fill="#ffffb3" stroke="black" points="1093.93,-122 974.07,-122 974.07,-86 1093.93,-86 1093.93,-122"/>
<text text-anchor="middle" x="1034" y="-99.8" font-family="Times,serif" font-size="14.00">ProfileComponent</text>
</g>
<!-- ProfileComponent&#45;&gt;AppModule -->
<g id="edge12" class="edge">
<title>ProfileComponent&#45;&gt;AppModule</title>
<path fill="none" stroke="black" d="M1034,-122.01C1034,-138.05 1034,-159 1034,-159 1034,-159 1405.28,-159 1405.28,-159"/>
<polygon fill="black" stroke="black" points="1405.28,-162.5 1415.28,-159 1405.28,-155.5 1405.28,-162.5"/>
</g>
<!-- ProjectComponent -->
<g id="node13" class="node">
<title>ProjectComponent</title>
<polygon fill="#ffffb3" stroke="black" points="956.49,-122 835.51,-122 835.51,-86 956.49,-86 956.49,-122"/>
<text text-anchor="middle" x="896" y="-99.8" font-family="Times,serif" font-size="14.00">ProjectComponent</text>
</g>
<!-- ProjectComponent&#45;&gt;AppModule -->
<g id="edge13" class="edge">
<title>ProjectComponent&#45;&gt;AppModule</title>
<path fill="none" stroke="black" d="M896,-122.02C896,-139.37 896,-163 896,-163 896,-163 1405.29,-163 1405.29,-163"/>
<polygon fill="black" stroke="black" points="1405.29,-166.5 1415.29,-163 1405.29,-159.5 1405.29,-166.5"/>
</g>
<!-- RegisterComponent -->
<g id="node14" class="node">
<title>RegisterComponent</title>
<polygon fill="#ffffb3" stroke="black" points="817.98,-122 690.02,-122 690.02,-86 817.98,-86 817.98,-122"/>
<text text-anchor="middle" x="754" y="-99.8" font-family="Times,serif" font-size="14.00">RegisterComponent</text>
</g>
<!-- RegisterComponent&#45;&gt;AppModule -->
<g id="edge14" class="edge">
<title>RegisterComponent&#45;&gt;AppModule</title>
<path fill="none" stroke="black" d="M754,-122.22C754,-140.83 754,-167 754,-167 754,-167 1405.13,-167 1405.13,-167"/>
<polygon fill="black" stroke="black" points="1405.13,-170.5 1415.13,-167 1405.13,-163.5 1405.13,-170.5"/>
</g>
<!-- TestApiComponent -->
<g id="node15" class="node">
<title>TestApiComponent</title>
<polygon fill="#ffffb3" stroke="black" points="672.43,-122 545.57,-122 545.57,-86 672.43,-86 672.43,-122"/>
<text text-anchor="middle" x="609" y="-99.8" font-family="Times,serif" font-size="14.00">TestApiComponent</text>
</g>
<!-- TestApiComponent&#45;&gt;AppModule -->
<g id="edge15" class="edge">
<title>TestApiComponent&#45;&gt;AppModule</title>
<path fill="none" stroke="black" d="M609,-122.31C609,-142.15 609,-171 609,-171 609,-171 1405.24,-171 1405.24,-171"/>
<polygon fill="black" stroke="black" points="1405.24,-174.5 1415.24,-171 1405.24,-167.5 1405.24,-174.5"/>
</g>
<!-- TestSeleniumComponent -->
<g id="node16" class="node">
<title>TestSeleniumComponent</title>
<polygon fill="#ffffb3" stroke="black" points="528.32,-122 369.68,-122 369.68,-86 528.32,-86 528.32,-122"/>
<text text-anchor="middle" x="449" y="-99.8" font-family="Times,serif" font-size="14.00">TestSeleniumComponent</text>
</g>
<!-- TestSeleniumComponent&#45;&gt;AppModule -->
<g id="edge16" class="edge">
<title>TestSeleniumComponent&#45;&gt;AppModule</title>
<path fill="none" stroke="black" d="M449,-122.28C449,-143.32 449,-175 449,-175 449,-175 1405.29,-175 1405.29,-175"/>
<polygon fill="black" stroke="black" points="1405.29,-178.5 1415.29,-175 1405.29,-171.5 1405.29,-178.5"/>
</g>
<!-- AppComponent  -->
<g id="node20" class="node">
<title>AppComponent </title>
<polygon fill="#80b1d3" stroke="black" points="1511.44,-252 1402.56,-252 1402.56,-216 1511.44,-216 1511.44,-252"/>
<text text-anchor="middle" x="1457" y="-229.8" font-family="Times,serif" font-size="14.00">AppComponent </text>
</g>
<!-- AppModule&#45;&gt;AppComponent  -->
<g id="edge19" class="edge">
<title>AppModule&#45;&gt;AppComponent </title>
<path fill="none" stroke="black" stroke-dasharray="1,5" d="M1457,-187.11C1457,-187.11 1457,-205.99 1457,-205.99"/>
<polygon fill="black" stroke="black" points="1453.5,-205.99 1457,-215.99 1460.5,-205.99 1453.5,-205.99"/>
</g>
<!-- AppRoutingModule -->
<g id="node18" class="node">
<title>AppRoutingModule</title>
<polygon fill="#8dd3c7" stroke="black" points="346.27,-122 343.27,-126 322.27,-126 319.27,-122 217.73,-122 217.73,-86 346.27,-86 346.27,-122"/>
<text text-anchor="middle" x="282" y="-99.8" font-family="Times,serif" font-size="14.00">AppRoutingModule</text>
</g>
<!-- AppRoutingModule&#45;&gt;AppModule -->
<g id="edge17" class="edge">
<title>AppRoutingModule&#45;&gt;AppModule</title>
<path fill="none" stroke="black" d="M282,-122.16C282,-144.35 282,-179 282,-179 282,-179 1405.18,-179 1405.18,-179"/>
<polygon fill="black" stroke="black" points="1405.18,-182.5 1415.18,-179 1405.18,-175.5 1405.18,-182.5"/>
</g>
<!-- PerformanceTestApiModule -->
<g id="node19" class="node">
<title>PerformanceTestApiModule</title>
<polygon fill="#8dd3c7" stroke="black" points="200.16,-122 197.16,-126 176.16,-126 173.16,-122 23.84,-122 23.84,-86 200.16,-86 200.16,-122"/>
<text text-anchor="middle" x="112" y="-99.8" font-family="Times,serif" font-size="14.00">PerformanceTestApiModule</text>
</g>
<!-- PerformanceTestApiModule&#45;&gt;AppModule -->
<g id="edge18" class="edge">
<title>PerformanceTestApiModule&#45;&gt;AppModule</title>
<path fill="none" stroke="black" d="M112,-122.32C112,-145.66 112,-183 112,-183 112,-183 1405.27,-183 1405.27,-183"/>
<polygon fill="black" stroke="black" points="1405.27,-186.5 1415.27,-183 1405.27,-179.5 1405.27,-186.5"/>
</g>
</g>
</svg>
